<svg xmlns="http://www.w3.org/2000/svg" data-name="Layer 1" viewBox="0 0 100 100" x="0px" y="0px"><path d="M74.92,74.6l-.15.17s-.1.08-.16.14A34.89,34.89,0,0,1,52,85v6A41,41,0,0,0,91,52H85A34.9,34.9,0,0,1,74.92,74.6Z"/><path d="M44.73,15.41A2,2,0,0,1,47,17.1a2.91,2.91,0,0,1,0,.3,2,2,0,0,1-1.69,2A31.16,31.16,0,0,0,19.1,48h6a25,25,0,0,1,49.51-2.35A2,2,0,0,1,73,48a1.57,1.57,0,0,1-.43,0,2,2,0,0,1-1.88-1.66,21,21,0,1,0-5.82,18.5,21.14,21.14,0,0,0,5.42-9.37,2,2,0,0,1,2-1.46,1.39,1.39,0,0,1,.43.06,2,2,0,0,1,1.4,2.44,25.14,25.14,0,0,1-5.08,9.69l4.24,4.25A31,31,0,0,0,54.73,19.38a2,2,0,0,1-1.69-2,2.91,2.91,0,0,1,0-.3,2,2,0,0,1,2.27-1.69A35.23,35.23,0,0,1,85,48h6A41,41,0,0,0,22.49,19.65l4.28,4.28A34.86,34.86,0,0,1,44.73,15.41ZM50,61.21a2,2,0,1,1,2-2A2,2,0,0,1,50,61.21ZM53.76,47.9A4.3,4.3,0,0,0,52,51.17a2,2,0,1,1-4,0v0a7.88,7.88,0,0,1,.56-2.83,8.75,8.75,0,0,1,2.69-3.57A2,2,0,0,0,52,42.71a2,2,0,0,0-1.44-1.44,2,2,0,0,0-1.75.37A2.07,2.07,0,0,0,48,43.21a2,2,0,0,1-2,2,2,2,0,0,1-2-2,5.94,5.94,0,0,1,2.27-4.69,6,6,0,0,1,5.13-1.16,5.94,5.94,0,0,1,4.45,4.46A6,6,0,0,1,53.76,47.9Z"/><path d="M15,50A35,35,0,0,1,24,26.78l-4.3-4.31A41,41,0,0,0,48,91V85A35,35,0,0,1,15,50Z"/><path d="M66.23,69A25,25,0,0,1,25.12,52h-6A30.95,30.95,0,0,0,70.46,73.28Z"/></svg>